<?xml version="1.0" standalone="no"?>
<!DOCTYPE svg PUBLIC "-//W3C//DTD SVG 20010904//EN"
 "http://www.w3.org/TR/2001/REC-SVG-20010904/DTD/svg10.dtd">
<svg version="1.0" xmlns="http://www.w3.org/2000/svg"
 width="687.000000pt" height="687.000000pt" viewBox="0 0 687.000000 687.000000"
 preserveAspectRatio="xMidYMid meet">
<metadata>
Created by potrace 1.14, written by Peter Selinger 2001-2017
</metadata>
<g transform="translate(0.000000,687.000000) scale(0.100000,-0.100000)"
fill="#000000" stroke="none">
<path d="M4605 6840 c-11 -52 -120 -153 -186 -173 -51 -16 -160 -18 -214 -3
-11 2 -47 12 -80 21 -33 9 -67 18 -75 20 -8 2 -40 11 -72 19 -155 42 -319 67
-448 67 -124 1 -340 -25 -420 -51 -207 -66 -400 -211 -468 -350 -34 -70 -46
-118 -46 -192 0 -27 -2 -48 -4 -48 -1 0 -14 7 -27 16 -29 19 -87 20 -130 4
-61 -23 -107 -86 -133 -182 -14 -50 -7 -221 14 -370 3 -21 6 -50 8 -65 12 -88
28 -201 31 -223 3 -14 7 -54 11 -90 6 -62 5 -66 -16 -67 -36 -3 -109 -52 -139
-94 -55 -75 -63 -186 -20 -270 21 -42 94 -109 119 -109 9 0 20 -4 26 -9 5 -6
23 -12 39 -14 28 -3 30 -7 36 -58 15 -126 40 -216 95 -336 19 -42 34 -77 34
-78 0 -2 -18 5 -39 16 -112 54 -239 52 -367 -7 -49 -22 -73 -27 -161 -28 -98
-2 -105 -3 -131 -29 -26 -27 -27 -30 -27 -147 l0 -119 -170 -201 c-94 -110
-172 -205 -173 -210 -2 -6 18 -30 44 -54 l48 -43 -29 -35 c-17 -19 -39 -46
-49 -59 -11 -13 -48 -57 -83 -97 -34 -39 -70 -86 -78 -103 -25 -48 -23 -109 6
-165 24 -47 86 -99 347 -292 13 -9 49 -36 80 -60 l57 -42 0 -161 0 -162 -60
-2 c-223 -7 -407 -182 -419 -401 -11 -194 106 -375 285 -444 30 -11 63 -25 74
-30 11 -5 54 -21 95 -35 41 -15 104 -38 140 -51 36 -14 90 -35 120 -46 30 -11
82 -30 115 -43 33 -13 123 -47 200 -75 157 -58 190 -74 133 -64 -33 5 -38 4
-39 -12 0 -11 -2 -28 -4 -39 -4 -23 -12 -71 -20 -130 -3 -22 -12 -80 -20 -130
-8 -49 -16 -108 -20 -130 -3 -23 -7 -52 -10 -65 -3 -13 -7 -42 -10 -65 -4 -22
-8 -51 -10 -65 -2 -14 -11 -72 -20 -130 -9 -58 -19 -123 -22 -145 -14 -87 -12
-90 32 -87 56 4 103 20 150 52 38 27 115 103 115 115 0 3 11 23 25 45 26 41
70 162 79 215 2 17 5 32 5 35 1 3 6 -2 11 -11 9 -15 26 -11 162 38 84 30 162
59 173 63 11 5 90 34 176 65 l155 57 95 -37 c52 -20 117 -45 144 -55 324 -121
455 -170 459 -170 2 0 12 19 21 42 l18 43 13 -64 c17 -80 43 -159 55 -166 5
-4 9 -13 9 -21 0 -44 131 -190 200 -223 68 -33 180 -49 180 -25 0 6 -9 55 -21
110 -26 123 -24 116 -44 194 -9 36 -17 74 -19 85 -2 11 -27 126 -56 255 -64
290 -65 292 -69 333 -1 4 -14 5 -30 2 -16 -3 -40 -1 -53 4 l-23 9 25 10 c14 6
102 39 195 72 94 33 179 65 190 69 11 5 142 53 290 106 295 106 342 128 401
183 50 48 63 66 95 127 122 232 8 514 -246 610 -33 12 -78 19 -133 19 -64 1
-81 4 -77 14 3 8 5 71 5 142 l0 128 78 45 c42 25 100 57 127 72 28 15 86 49
130 74 44 25 89 51 99 56 31 16 85 92 92 130 11 61 -4 100 -102 251 -53 82
-98 154 -100 159 -2 6 21 26 51 45 30 19 54 39 52 43 -2 8 -132 209 -344 534
-76 114 -83 130 -83 175 0 81 -26 108 -110 115 -25 1 -72 15 -105 30 -83 37
-195 43 -285 14 -35 -11 -66 -19 -68 -17 -2 2 8 26 21 53 57 112 103 280 106
386 1 23 5 27 29 27 31 0 99 29 131 56 26 22 73 99 80 129 26 125 -34 244
-149 296 l-51 23 5 136 c9 205 15 271 37 392 5 32 10 95 11 140 2 137 -14 203
-67 290 l-36 57 19 43 c49 112 50 120 11 90 -47 -34 -107 -62 -123 -56 -23 9
-19 25 15 59 63 62 129 184 145 268 10 54 6 174 -6 214 -17 54 -27 60 -35 23z"/>
</g>
</svg>
